<?xml version="1.0" encoding="UTF-8"?>
<svg width="977px" height="692px" viewBox="0 0 977 692" version="1.1" xmlns="http://www.w3.org/2000/svg" xmlns:xlink="http://www.w3.org/1999/xlink">
    <!-- Generator: Sketch 53.2 (72643) - https://sketchapp.com -->
    <title>05-pooling-concept</title>
    <desc>Created with Sketch.</desc>
    <g id="Page-1" stroke="none" stroke-width="1" fill="none" fill-rule="evenodd">
        <g id="05-pooling-concept" transform="translate(0.000000, 3.000000)">
            <g id="Input" transform="translate(236.000000, 636.000000)">
                <g id="Input-dot">
                    <circle id="Oval" stroke="#1E81E9" stroke-width="5" fill="#65BFFF" cx="25" cy="25" r="25"></circle>
                    <text id="1" font-family="Helvetica-Bold, Helvetica, Arial, 'Lucida Grande', sans-serif" font-size="32" font-weight="bold" fill="#FFFFFF">
                        <tspan x="16.6015625" y="35">1</tspan>
                    </text>
                </g>
                <g id="Input-dot" transform="translate(86.000000, 0.000000)">
                    <circle id="Oval" stroke="#1E81E9" stroke-width="5" fill="#65BFFF" cx="25" cy="25" r="25"></circle>
                    <text id="2" font-family="Helvetica-Bold, Helvetica, Arial, 'Lucida Grande', sans-serif" font-size="32" font-weight="bold" fill="#FFFFFF">
                        <tspan x="16.6015625" y="35">2</tspan>
                    </text>
                </g>
                <g id="Input-dot" transform="translate(172.000000, 0.000000)">
                    <circle id="Oval" stroke="#1E81E9" stroke-width="5" fill="#65BFFF" cx="25" cy="25" r="25"></circle>
                    <text id="3" font-family="Helvetica-Bold, Helvetica, Arial, 'Lucida Grande', sans-serif" font-size="32" font-weight="bold" fill="#FFFFFF">
                        <tspan x="16.6015625" y="35">3</tspan>
                    </text>
                </g>
                <g id="Input-dot" transform="translate(258.000000, 0.000000)">
                    <circle id="Oval" stroke="#1E81E9" stroke-width="5" fill="#65BFFF" cx="25" cy="25" r="25"></circle>
                    <text id="4" font-family="Helvetica-Bold, Helvetica, Arial, 'Lucida Grande', sans-serif" font-size="32" font-weight="bold" fill="#FFFFFF">
                        <tspan x="16.6015625" y="35">4</tspan>
                    </text>
                </g>
                <g id="Input-dot" transform="translate(344.000000, 0.000000)">
                    <circle id="Oval" stroke="#1E81E9" stroke-width="5" fill="#65BFFF" cx="25" cy="25" r="25"></circle>
                    <text id="5" font-family="Helvetica-Bold, Helvetica, Arial, 'Lucida Grande', sans-serif" font-size="32" font-weight="bold" fill="#FFFFFF">
                        <tspan x="16.6015625" y="35">5</tspan>
                    </text>
                </g>
                <g id="Input-dot" transform="translate(430.000000, 0.000000)">
                    <circle id="Oval" stroke="#1E81E9" stroke-width="5" fill="#65BFFF" cx="25" cy="25" r="25"></circle>
                    <text id="6" font-family="Helvetica-Bold, Helvetica, Arial, 'Lucida Grande', sans-serif" font-size="32" font-weight="bold" fill="#FFFFFF">
                        <tspan x="16.6015625" y="35">6</tspan>
                    </text>
                </g>
                <g id="Input-dot" transform="translate(516.000000, 0.000000)">
                    <circle id="Oval" stroke="#1E81E9" stroke-width="5" fill="#65BFFF" cx="25" cy="25" r="25"></circle>
                    <text id="7" font-family="Helvetica-Bold, Helvetica, Arial, 'Lucida Grande', sans-serif" font-size="32" font-weight="bold" fill="#FFFFFF">
                        <tspan x="16.6015625" y="35">7</tspan>
                    </text>
                </g>
                <g id="Input-dot" transform="translate(602.000000, 0.000000)">
                    <circle id="Oval" stroke="#1E81E9" stroke-width="5" fill="#65BFFF" cx="25" cy="25" r="25"></circle>
                    <text id="8" font-family="Helvetica-Bold, Helvetica, Arial, 'Lucida Grande', sans-serif" font-size="32" font-weight="bold" fill="#FFFFFF">
                        <tspan x="16.6015625" y="35">8</tspan>
                    </text>
                </g>
                <g id="Input-dot" transform="translate(688.000000, 0.000000)">
                    <circle id="Oval" stroke="#1E81E9" stroke-width="5" fill="#65BFFF" cx="25" cy="25" r="25"></circle>
                    <text id="9" font-family="Helvetica-Bold, Helvetica, Arial, 'Lucida Grande', sans-serif" font-size="32" font-weight="bold" fill="#FFFFFF">
                        <tspan x="16.6015625" y="35">9</tspan>
                    </text>
                </g>
            </g>
            <g id="Kernels" transform="translate(1.000000, 481.000000)">
                <g id="Active-Kernel" transform="translate(776.000000, 0.000000)" fill="#7C7C7C" fill-rule="nonzero">
                    <path id="Line" d="M170.5,4.72625996 L164.307363,15.7353919 C163.901218,16.4574287 162.986645,16.713509 162.264608,16.3073633 C161.542571,15.9012176 161.286491,14.986645 161.692637,14.2646081 L170.692637,-1.73539186 L173.307363,-1.73539186 L182.307363,14.2646081 C182.713509,14.986645 182.457429,15.9012176 181.735392,16.3073633 C181.013355,16.713509 180.098782,16.4574287 179.692637,15.7353919 L173.5,4.72625996 L173.5,15 L173.5,148 C173.5,148.828427 172.828427,149.5 172,149.5 C171.171573,149.5 170.5,148.828427 170.5,148 L170.5,15 L170.5,4.72625996 Z"></path>
                    <path id="Line" d="M168.328507,3.33281757 L157.443018,9.74030258 C156.72909,10.1605392 155.809669,9.92245552 155.389432,9.20852786 C154.969195,8.4946002 155.207279,7.57517841 155.921207,7.15494182 L171.741512,-2.15730562 L174.00227,-0.843621563 L173.74522,17.5121384 C173.73362,18.3404843 173.052709,19.0025877 172.224363,18.9909877 C171.396017,18.9793877 170.733914,18.298477 170.745514,17.4701311 L170.922383,4.84006966 L165.763419,13.7182869 L87.2969378,148.753626 C86.8807217,149.469905 85.9626529,149.713154 85.246374,149.296938 C84.530095,148.880722 84.286846,147.962653 84.7030622,147.246374 L163.169543,12.2110348 L168.328507,3.33281757 Z"></path>
                    <path id="Line" d="M167.439081,1.94564853 L155.054942,4.43217985 C154.242725,4.59525966 153.45209,4.06902999 153.289011,3.25681298 C153.125931,2.44459596 153.652161,1.65396167 154.464378,1.49088186 L172.462729,-2.12289091 L174.168163,-0.140899707 L167.910166,17.1170688 C167.62776,17.8958743 166.767477,18.2982853 165.988672,18.0158788 C165.209866,17.7334723 164.807455,16.8731899 165.089862,16.0943844 L169.395806,4.21968116 L161.687749,10.8521958 L0.978362872,149.137016 C0.350406103,149.677351 -0.596681417,149.60632 -1.13701631,148.978363 C-1.6773512,148.350406 -1.60631964,147.403319 -0.978362872,146.862984 L159.731023,8.5781632 L167.439081,1.94564853 Z"></path>
                </g>
                <g id="Active-Kernel" transform="translate(604.000000, 0.000000)" fill="#7C7C7C" fill-rule="nonzero">
                    <path id="Line" d="M170.5,4.72625996 L164.307363,15.7353919 C163.901218,16.4574287 162.986645,16.713509 162.264608,16.3073633 C161.542571,15.9012176 161.286491,14.986645 161.692637,14.2646081 L170.692637,-1.73539186 L173.307363,-1.73539186 L182.307363,14.2646081 C182.713509,14.986645 182.457429,15.9012176 181.735392,16.3073633 C181.013355,16.713509 180.098782,16.4574287 179.692637,15.7353919 L173.5,4.72625996 L173.5,15 L173.5,148 C173.5,148.828427 172.828427,149.5 172,149.5 C171.171573,149.5 170.5,148.828427 170.5,148 L170.5,15 L170.5,4.72625996 Z"></path>
                    <path id="Line" d="M168.328507,3.33281757 L157.443018,9.74030258 C156.72909,10.1605392 155.809669,9.92245552 155.389432,9.20852786 C154.969195,8.4946002 155.207279,7.57517841 155.921207,7.15494182 L171.741512,-2.15730562 L174.00227,-0.843621563 L173.74522,17.5121384 C173.73362,18.3404843 173.052709,19.0025877 172.224363,18.9909877 C171.396017,18.9793877 170.733914,18.298477 170.745514,17.4701311 L170.922383,4.84006966 L165.763419,13.7182869 L87.2969378,148.753626 C86.8807217,149.469905 85.9626529,149.713154 85.246374,149.296938 C84.530095,148.880722 84.286846,147.962653 84.7030622,147.246374 L163.169543,12.2110348 L168.328507,3.33281757 Z"></path>
                    <path id="Line" d="M167.439081,1.94564853 L155.054942,4.43217985 C154.242725,4.59525966 153.45209,4.06902999 153.289011,3.25681298 C153.125931,2.44459596 153.652161,1.65396167 154.464378,1.49088186 L172.462729,-2.12289091 L174.168163,-0.140899707 L167.910166,17.1170688 C167.62776,17.8958743 166.767477,18.2982853 165.988672,18.0158788 C165.209866,17.7334723 164.807455,16.8731899 165.089862,16.0943844 L169.395806,4.21968116 L161.687749,10.8521958 L0.978362872,149.137016 C0.350406103,149.677351 -0.596681417,149.60632 -1.13701631,148.978363 C-1.6773512,148.350406 -1.60631964,147.403319 -0.978362872,146.862984 L159.731023,8.5781632 L167.439081,1.94564853 Z"></path>
                </g>
                <g id="Active-Kernel" transform="translate(432.000000, 0.000000)" fill="#7C7C7C" fill-rule="nonzero">
                    <path id="Line" d="M170.5,4.72625996 L164.307363,15.7353919 C163.901218,16.4574287 162.986645,16.713509 162.264608,16.3073633 C161.542571,15.9012176 161.286491,14.986645 161.692637,14.2646081 L170.692637,-1.73539186 L173.307363,-1.73539186 L182.307363,14.2646081 C182.713509,14.986645 182.457429,15.9012176 181.735392,16.3073633 C181.013355,16.713509 180.098782,16.4574287 179.692637,15.7353919 L173.5,4.72625996 L173.5,15 L173.5,148 C173.5,148.828427 172.828427,149.5 172,149.5 C171.171573,149.5 170.5,148.828427 170.5,148 L170.5,15 L170.5,4.72625996 Z"></path>
                    <path id="Line" d="M168.328507,3.33281757 L157.443018,9.74030258 C156.72909,10.1605392 155.809669,9.92245552 155.389432,9.20852786 C154.969195,8.4946002 155.207279,7.57517841 155.921207,7.15494182 L171.741512,-2.15730562 L174.00227,-0.843621563 L173.74522,17.5121384 C173.73362,18.3404843 173.052709,19.0025877 172.224363,18.9909877 C171.396017,18.9793877 170.733914,18.298477 170.745514,17.4701311 L170.922383,4.84006966 L165.763419,13.7182869 L87.2969378,148.753626 C86.8807217,149.469905 85.9626529,149.713154 85.246374,149.296938 C84.530095,148.880722 84.286846,147.962653 84.7030622,147.246374 L163.169543,12.2110348 L168.328507,3.33281757 Z"></path>
                    <path id="Line" d="M167.439081,1.94564853 L155.054942,4.43217985 C154.242725,4.59525966 153.45209,4.06902999 153.289011,3.25681298 C153.125931,2.44459596 153.652161,1.65396167 154.464378,1.49088186 L172.462729,-2.12289091 L174.168163,-0.140899707 L167.910166,17.1170688 C167.62776,17.8958743 166.767477,18.2982853 165.988672,18.0158788 C165.209866,17.7334723 164.807455,16.8731899 165.089862,16.0943844 L169.395806,4.21968116 L161.687749,10.8521958 L0.978362872,149.137016 C0.350406103,149.677351 -0.596681417,149.60632 -1.13701631,148.978363 C-1.6773512,148.350406 -1.60631964,147.403319 -0.978362872,146.862984 L159.731023,8.5781632 L167.439081,1.94564853 Z"></path>
                </g>
                <g id="Active-Kernel" transform="translate(260.000000, 0.000000)" fill="#7C7C7C" fill-rule="nonzero">
                    <path id="Line" d="M170.5,4.72625996 L164.307363,15.7353919 C163.901218,16.4574287 162.986645,16.713509 162.264608,16.3073633 C161.542571,15.9012176 161.286491,14.986645 161.692637,14.2646081 L170.692637,-1.73539186 L173.307363,-1.73539186 L182.307363,14.2646081 C182.713509,14.986645 182.457429,15.9012176 181.735392,16.3073633 C181.013355,16.713509 180.098782,16.4574287 179.692637,15.7353919 L173.5,4.72625996 L173.5,15 L173.5,148 C173.5,148.828427 172.828427,149.5 172,149.5 C171.171573,149.5 170.5,148.828427 170.5,148 L170.5,15 L170.5,4.72625996 Z"></path>
                    <path id="Line" d="M168.328507,3.33281757 L157.443018,9.74030258 C156.72909,10.1605392 155.809669,9.92245552 155.389432,9.20852786 C154.969195,8.4946002 155.207279,7.57517841 155.921207,7.15494182 L171.741512,-2.15730562 L174.00227,-0.843621563 L173.74522,17.5121384 C173.73362,18.3404843 173.052709,19.0025877 172.224363,18.9909877 C171.396017,18.9793877 170.733914,18.298477 170.745514,17.4701311 L170.922383,4.84006966 L165.763419,13.7182869 L87.2969378,148.753626 C86.8807217,149.469905 85.9626529,149.713154 85.246374,149.296938 C84.530095,148.880722 84.286846,147.962653 84.7030622,147.246374 L163.169543,12.2110348 L168.328507,3.33281757 Z"></path>
                    <path id="Line" d="M167.439081,1.94564853 L155.054942,4.43217985 C154.242725,4.59525966 153.45209,4.06902999 153.289011,3.25681298 C153.125931,2.44459596 153.652161,1.65396167 154.464378,1.49088186 L172.462729,-2.12289091 L174.168163,-0.140899707 L167.910166,17.1170688 C167.62776,17.8958743 166.767477,18.2982853 165.988672,18.0158788 C165.209866,17.7334723 164.807455,16.8731899 165.089862,16.0943844 L169.395806,4.21968116 L161.687749,10.8521958 L0.978362872,149.137016 C0.350406103,149.677351 -0.596681417,149.60632 -1.13701631,148.978363 C-1.6773512,148.350406 -1.60631964,147.403319 -0.978362872,146.862984 L159.731023,8.5781632 L167.439081,1.94564853 Z"></path>
                </g>
                <g id="Info" transform="translate(0.000000, 29.000000)">
                    <rect id="Rectangle" stroke="#979797" stroke-width="2" x="1" y="1" width="258" height="88"></rect>
                    <text id="kernel_size-=-3-stri" font-family="Menlo-Regular, Menlo, Consolas, Monaco, 'Lucida Console', 'Liberation Mono', 'DejaVu Sans Mono', 'Bitstream Vera Sans Mono', 'Courier New', monospace, serif" font-size="20" font-weight="normal" fill="#000000">
                        <tspan x="16.25" y="25.8">kernel_size = 3</tspan>
                        <tspan x="16.25" y="49.8">strides = 2</tspan>
                        <tspan x="16.25" y="73.8">padding = 'valid'</tspan>
                    </text>
                </g>
            </g>
            <g id="Hidden" transform="translate(408.000000, 424.000000)" fill="#DCDCDC" stroke="#ABABAB" stroke-width="5">
                <g id="Hidden-dot" transform="translate(516.000000, 0.000000)">
                    <circle id="Oval" cx="25" cy="25" r="25"></circle>
                </g>
                <g id="Hidden-dot" transform="translate(344.000000, 0.000000)">
                    <circle id="Oval" cx="25" cy="25" r="25"></circle>
                </g>
                <g id="Hidden-dot" transform="translate(172.000000, 0.000000)">
                    <circle id="Oval" cx="25" cy="25" r="25"></circle>
                </g>
                <g id="Hidden-dot">
                    <circle id="Oval" cx="25" cy="25" r="25"></circle>
                </g>
            </g>
            <g id="Pooling" transform="translate(0.000000, 269.000000)">
                <g id="Active-Pooling" transform="translate(432.000000, 0.000000)" stroke="#7C7C7C" stroke-linecap="round" stroke-width="3">
                    <path d="M174,147.471429 L174,131.614286" id="Line-2"></path>
                    <path d="M2,147.471429 L2,131.614286" id="Line-2"></path>
                    <path d="M174,131.335714 L2,131.335714" id="Line-2"></path>
                    <path d="M174,0.528571429 L174,123.157143" id="Line-2"></path>
                </g>
                <g id="Active-Pooling" transform="translate(776.000000, 0.000000)" stroke="#7C7C7C" stroke-linecap="round" stroke-width="3">
                    <path d="M174,147.471429 L174,131.614286" id="Line-2"></path>
                    <path d="M2,147.471429 L2,131.614286" id="Line-2"></path>
                    <path d="M174,131.335714 L2,131.335714" id="Line-2"></path>
                    <path d="M174,0.528571429 L174,123.157143" id="Line-2"></path>
                </g>
                <g id="Info" transform="translate(0.000000, 29.000000)">
                    <rect id="Rectangle" stroke="#979797" stroke-width="2" x="1" y="1" width="258" height="88"></rect>
                    <text id="pool_size-=-2-stride" font-family="Menlo-Regular, Menlo, Consolas, Monaco, 'Lucida Console', 'Liberation Mono', 'DejaVu Sans Mono', 'Bitstream Vera Sans Mono', 'Courier New', monospace, serif" font-size="20" font-weight="normal" fill="#000000">
                        <tspan x="16.25" y="25.8">pool_size = 2</tspan>
                        <tspan x="16.25" y="49.8">strides = 2</tspan>
                        <tspan x="16.25" y="73.8">padding = 'valid'</tspan>
                    </text>
                </g>
            </g>
            <g id="Hidden" transform="translate(580.000000, 212.000000)" fill="#DCDCDC" stroke="#ABABAB" stroke-width="5">
                <g id="Hidden-dot" transform="translate(344.000000, 0.000000)">
                    <circle id="Oval" cx="25" cy="25" r="25"></circle>
                </g>
                <g id="Hidden-dot">
                    <circle id="Oval" cx="25" cy="25" r="25"></circle>
                </g>
            </g>
            <g id="Kernels" transform="translate(1.000000, 57.000000)">
                <g id="Active-Kernel" transform="translate(604.000000, 0.000000)" fill="#7C7C7C" fill-rule="nonzero">
                    <path id="Line" d="M342.5,4.72625996 L336.307363,15.7353919 C335.901218,16.4574287 334.986645,16.713509 334.264608,16.3073633 C333.542571,15.9012176 333.286491,14.986645 333.692637,14.2646081 L342.692637,-1.73539186 L345.307363,-1.73539186 L354.307363,14.2646081 C354.713509,14.986645 354.457429,15.9012176 353.735392,16.3073633 C353.013355,16.713509 352.098782,16.4574287 351.692637,15.7353919 L345.5,4.72625996 L345.5,15 L345.5,148 C345.5,148.828427 344.828427,149.5 344,149.5 C343.171573,149.5 342.5,148.828427 342.5,148 L342.5,15 L342.5,4.72625996 Z"></path>
                    <path id="Line" d="M339.065685,0.489968436 L326.505409,-0.847638525 C325.68164,-0.93536583 325.08496,-1.67427961 325.172687,-2.49804864 C325.260415,-3.32181768 325.999328,-3.91849739 326.823097,-3.83077009 L345.077436,-1.88677381 L346.110797,0.515092206 L334.970203,15.1057455 C334.467458,15.7641824 333.526134,15.8903955 332.867697,15.3876506 C332.209261,14.8849057 332.083047,13.9435819 332.585792,13.2851451 L340.251309,3.24574337 L330.930555,7.25583528 L0.59281205,149.377887 C-0.168174185,149.705289 -1.05048641,149.353798 -1.37788747,148.592812 C-1.70528852,147.831826 -1.35379829,146.949514 -0.59281205,146.622113 L329.744931,4.50006034 L339.065685,0.489968436 Z"></path>
                </g>
                <g id="Info" transform="translate(0.000000, 29.000000)">
                    <rect id="Rectangle" stroke="#979797" stroke-width="2" x="1" y="1" width="258" height="88"></rect>
                    <text id="kernel_size-=-2-stri" font-family="Menlo-Regular, Menlo, Consolas, Monaco, 'Lucida Console', 'Liberation Mono', 'DejaVu Sans Mono', 'Bitstream Vera Sans Mono', 'Courier New', monospace, serif" font-size="20" font-weight="normal" fill="#000000">
                        <tspan x="16.25" y="25.8">kernel_size = 2</tspan>
                        <tspan x="16.25" y="49.8">strides = 1</tspan>
                        <tspan x="16.25" y="73.8">padding = 'valid'</tspan>
                    </text>
                </g>
            </g>
            <g id="Output" transform="translate(924.000000, 0.000000)">
                <g id="Output-dot">
                    <circle id="Oval" stroke="#FF651E" stroke-width="5" fill="#FF9901" cx="25" cy="25" r="25"></circle>
                    <text id="10" font-family="Helvetica-Bold, Helvetica, Arial, 'Lucida Grande', sans-serif" font-size="32" font-weight="bold" fill="#FFFFFF">
                        <tspan x="7.703125" y="36">10</tspan>
                    </text>
                </g>
            </g>
        </g>
    </g>
</svg>