<?xml version="1.0" encoding="UTF-8"?>
<svg width="814px" height="480px" viewBox="0 0 814 480" version="1.1" xmlns="http://www.w3.org/2000/svg" xmlns:xlink="http://www.w3.org/1999/xlink">
    <!-- Generator: Sketch 53.2 (72643) - https://sketchapp.com -->
    <title>08-softmax-concept</title>
    <desc>Created with Sketch.</desc>
    <g id="Page-1" stroke="none" stroke-width="1" fill="none" fill-rule="evenodd">
        <g id="08-softmax-concept" transform="translate(0.000000, 3.000000)">
            <g id="Input" transform="translate(321.000000, 424.000000)">
                <g id="Input-dot">
                    <circle id="Oval" stroke="#1E81E9" stroke-width="5" fill="#65BFFF" cx="25" cy="25" r="25"></circle>
                    <text id="1" font-family="Helvetica-Bold, Helvetica" font-size="32" font-weight="bold" fill="#FFFFFF">
                        <tspan x="16.6015625" y="35">1</tspan>
                    </text>
                </g>
                <g id="Input-dot" transform="translate(86.000000, 0.000000)">
                    <circle id="Oval" stroke="#1E81E9" stroke-width="5" fill="#65BFFF" cx="25" cy="25" r="25"></circle>
                    <text id="2" font-family="Helvetica-Bold, Helvetica" font-size="32" font-weight="bold" fill="#FFFFFF">
                        <tspan x="16.6015625" y="35">2</tspan>
                    </text>
                </g>
                <g id="Input-dot" transform="translate(172.000000, 0.000000)">
                    <circle id="Oval" stroke="#1E81E9" stroke-width="5" fill="#65BFFF" cx="25" cy="25" r="25"></circle>
                    <text id="3" font-family="Helvetica-Bold, Helvetica" font-size="32" font-weight="bold" fill="#FFFFFF">
                        <tspan x="16.6015625" y="35">3</tspan>
                    </text>
                </g>
                <g id="Input-dot" transform="translate(258.000000, 0.000000)">
                    <circle id="Oval" stroke="#1E81E9" stroke-width="5" fill="#65BFFF" cx="25" cy="25" r="25"></circle>
                    <text id="4" font-family="Helvetica-Bold, Helvetica" font-size="32" font-weight="bold" fill="#FFFFFF">
                        <tspan x="16.6015625" y="35">4</tspan>
                    </text>
                </g>
                <g id="Input-dot" transform="translate(344.000000, 0.000000)">
                    <circle id="Oval" stroke="#1E81E9" stroke-width="5" fill="#65BFFF" cx="25" cy="25" r="25"></circle>
                    <text id="5" font-family="Helvetica-Bold, Helvetica" font-size="32" font-weight="bold" fill="#FFFFFF">
                        <tspan x="16.6015625" y="35">5</tspan>
                    </text>
                </g>
                <g id="Input-dot" transform="translate(430.000000, 0.000000)">
                    <circle id="Oval" stroke="#1E81E9" stroke-width="5" fill="#65BFFF" cx="25" cy="25" r="25"></circle>
                    <text id="6" font-family="Helvetica-Bold, Helvetica" font-size="32" font-weight="bold" fill="#FFFFFF">
                        <tspan x="16.6015625" y="35">6</tspan>
                    </text>
                </g>
            </g>
            <g id="Kernels" transform="translate(0.000000, 269.000000)">
                <g id="Active-Kernel" transform="translate(518.000000, 0.000000)" fill="#7C7C7C" fill-rule="nonzero">
                    <path id="Line" d="M256.5,4.72625996 L250.307363,15.7353919 C249.901218,16.4574287 248.986645,16.713509 248.264608,16.3073633 C247.542571,15.9012176 247.286491,14.986645 247.692637,14.2646081 L256.692637,-1.73539186 L259.307363,-1.73539186 L268.307363,14.2646081 C268.713509,14.986645 268.457429,15.9012176 267.735392,16.3073633 C267.013355,16.713509 266.098782,16.4574287 265.692637,15.7353919 L259.5,4.72625996 L259.5,15 L259.5,148 C259.5,148.828427 258.828427,149.5 258,149.5 C257.171573,149.5 256.5,148.828427 256.5,148 L256.5,15 L256.5,4.72625996 Z"></path>
                    <path id="Line" d="M254.328507,3.33281757 L243.443018,9.74030258 C242.72909,10.1605392 241.809669,9.92245552 241.389432,9.20852786 C240.969195,8.4946002 241.207279,7.57517841 241.921207,7.15494182 L257.741512,-2.15730562 L260.00227,-0.843621563 L259.74522,17.5121384 C259.73362,18.3404843 259.052709,19.0025877 258.224363,18.9909877 C257.396017,18.9793877 256.733914,18.298477 256.745514,17.4701311 L256.922383,4.84006966 L251.763419,13.7182869 L173.296938,148.753626 C172.880722,149.469905 171.962653,149.713154 171.246374,149.296938 C170.530095,148.880722 170.286846,147.962653 170.703062,147.246374 L249.169543,12.2110348 L254.328507,3.33281757 Z"></path>
                    <path id="Line" d="M253.439081,1.94564853 L241.054942,4.43217985 C240.242725,4.59525966 239.45209,4.06902999 239.289011,3.25681298 C239.125931,2.44459596 239.652161,1.65396167 240.464378,1.49088186 L258.462729,-2.12289091 L260.168163,-0.140899707 L253.910166,17.1170688 C253.62776,17.8958743 252.767477,18.2982853 251.988672,18.0158788 C251.209866,17.7334723 250.807455,16.8731899 251.089862,16.0943844 L255.395806,4.21968116 L247.687749,10.8521958 L86.9783629,149.137016 C86.3504061,149.677351 85.4033186,149.60632 84.8629837,148.978363 C84.3226488,148.350406 84.3936804,147.403319 85.0216371,146.862984 L245.731023,8.5781632 L253.439081,1.94564853 Z"></path>
                    <path id="Line" d="M253.153995,1.05060175 L240.523143,1.15701551 C239.694745,1.16399469 239.017538,0.498103386 239.010559,-0.330294339 C239.00358,-1.15869207 239.669471,-1.83589885 240.497869,-1.84287802 L258.854777,-1.99753329 L260.15583,0.270518084 L250.755479,16.0386316 C250.331267,16.750204 249.410531,16.9831553 248.698959,16.5589428 C247.987386,16.1347304 247.754435,15.2139948 248.178648,14.5024224 L254.646754,3.65284479 L245.739882,8.76221309 L0.746379787,149.301122 C0.0277902135,149.713336 -0.888907347,149.464969 -1.30112152,148.74638 C-1.7133357,148.02779 -1.46496936,147.111093 -0.746379787,146.698878 L244.247123,6.15997004 L253.153995,1.05060175 Z"></path>
                </g>
                <g id="Active-Kernel" transform="translate(432.000000, 0.000000)" fill="#7C7C7C" fill-rule="nonzero">
                    <path id="Line" d="M256.5,4.72625996 L250.307363,15.7353919 C249.901218,16.4574287 248.986645,16.713509 248.264608,16.3073633 C247.542571,15.9012176 247.286491,14.986645 247.692637,14.2646081 L256.692637,-1.73539186 L259.307363,-1.73539186 L268.307363,14.2646081 C268.713509,14.986645 268.457429,15.9012176 267.735392,16.3073633 C267.013355,16.713509 266.098782,16.4574287 265.692637,15.7353919 L259.5,4.72625996 L259.5,15 L259.5,148 C259.5,148.828427 258.828427,149.5 258,149.5 C257.171573,149.5 256.5,148.828427 256.5,148 L256.5,15 L256.5,4.72625996 Z"></path>
                    <path id="Line" d="M254.328507,3.33281757 L243.443018,9.74030258 C242.72909,10.1605392 241.809669,9.92245552 241.389432,9.20852786 C240.969195,8.4946002 241.207279,7.57517841 241.921207,7.15494182 L257.741512,-2.15730562 L260.00227,-0.843621563 L259.74522,17.5121384 C259.73362,18.3404843 259.052709,19.0025877 258.224363,18.9909877 C257.396017,18.9793877 256.733914,18.298477 256.745514,17.4701311 L256.922383,4.84006966 L251.763419,13.7182869 L173.296938,148.753626 C172.880722,149.469905 171.962653,149.713154 171.246374,149.296938 C170.530095,148.880722 170.286846,147.962653 170.703062,147.246374 L249.169543,12.2110348 L254.328507,3.33281757 Z"></path>
                    <path id="Line" d="M253.439081,1.94564853 L241.054942,4.43217985 C240.242725,4.59525966 239.45209,4.06902999 239.289011,3.25681298 C239.125931,2.44459596 239.652161,1.65396167 240.464378,1.49088186 L258.462729,-2.12289091 L260.168163,-0.140899707 L253.910166,17.1170688 C253.62776,17.8958743 252.767477,18.2982853 251.988672,18.0158788 C251.209866,17.7334723 250.807455,16.8731899 251.089862,16.0943844 L255.395806,4.21968116 L247.687749,10.8521958 L86.9783629,149.137016 C86.3504061,149.677351 85.4033186,149.60632 84.8629837,148.978363 C84.3226488,148.350406 84.3936804,147.403319 85.0216371,146.862984 L245.731023,8.5781632 L253.439081,1.94564853 Z"></path>
                    <path id="Line" d="M253.153995,1.05060175 L240.523143,1.15701551 C239.694745,1.16399469 239.017538,0.498103386 239.010559,-0.330294339 C239.00358,-1.15869207 239.669471,-1.83589885 240.497869,-1.84287802 L258.854777,-1.99753329 L260.15583,0.270518084 L250.755479,16.0386316 C250.331267,16.750204 249.410531,16.9831553 248.698959,16.5589428 C247.987386,16.1347304 247.754435,15.2139948 248.178648,14.5024224 L254.646754,3.65284479 L245.739882,8.76221309 L0.746379787,149.301122 C0.0277902135,149.713336 -0.888907347,149.464969 -1.30112152,148.74638 C-1.7133357,148.02779 -1.46496936,147.111093 -0.746379787,146.698878 L244.247123,6.15997004 L253.153995,1.05060175 Z"></path>
                </g>
                <g id="Active-Kernel" transform="translate(346.000000, 0.000000)" fill="#7C7C7C" fill-rule="nonzero">
                    <path id="Line" d="M256.5,4.72625996 L250.307363,15.7353919 C249.901218,16.4574287 248.986645,16.713509 248.264608,16.3073633 C247.542571,15.9012176 247.286491,14.986645 247.692637,14.2646081 L256.692637,-1.73539186 L259.307363,-1.73539186 L268.307363,14.2646081 C268.713509,14.986645 268.457429,15.9012176 267.735392,16.3073633 C267.013355,16.713509 266.098782,16.4574287 265.692637,15.7353919 L259.5,4.72625996 L259.5,15 L259.5,148 C259.5,148.828427 258.828427,149.5 258,149.5 C257.171573,149.5 256.5,148.828427 256.5,148 L256.5,15 L256.5,4.72625996 Z"></path>
                    <path id="Line" d="M254.328507,3.33281757 L243.443018,9.74030258 C242.72909,10.1605392 241.809669,9.92245552 241.389432,9.20852786 C240.969195,8.4946002 241.207279,7.57517841 241.921207,7.15494182 L257.741512,-2.15730562 L260.00227,-0.843621563 L259.74522,17.5121384 C259.73362,18.3404843 259.052709,19.0025877 258.224363,18.9909877 C257.396017,18.9793877 256.733914,18.298477 256.745514,17.4701311 L256.922383,4.84006966 L251.763419,13.7182869 L173.296938,148.753626 C172.880722,149.469905 171.962653,149.713154 171.246374,149.296938 C170.530095,148.880722 170.286846,147.962653 170.703062,147.246374 L249.169543,12.2110348 L254.328507,3.33281757 Z"></path>
                    <path id="Line" d="M253.439081,1.94564853 L241.054942,4.43217985 C240.242725,4.59525966 239.45209,4.06902999 239.289011,3.25681298 C239.125931,2.44459596 239.652161,1.65396167 240.464378,1.49088186 L258.462729,-2.12289091 L260.168163,-0.140899707 L253.910166,17.1170688 C253.62776,17.8958743 252.767477,18.2982853 251.988672,18.0158788 C251.209866,17.7334723 250.807455,16.8731899 251.089862,16.0943844 L255.395806,4.21968116 L247.687749,10.8521958 L86.9783629,149.137016 C86.3504061,149.677351 85.4033186,149.60632 84.8629837,148.978363 C84.3226488,148.350406 84.3936804,147.403319 85.0216371,146.862984 L245.731023,8.5781632 L253.439081,1.94564853 Z"></path>
                    <path id="Line" d="M253.153995,1.05060175 L240.523143,1.15701551 C239.694745,1.16399469 239.017538,0.498103386 239.010559,-0.330294339 C239.00358,-1.15869207 239.669471,-1.83589885 240.497869,-1.84287802 L258.854777,-1.99753329 L260.15583,0.270518084 L250.755479,16.0386316 C250.331267,16.750204 249.410531,16.9831553 248.698959,16.5589428 C247.987386,16.1347304 247.754435,15.2139948 248.178648,14.5024224 L254.646754,3.65284479 L245.739882,8.76221309 L0.746379787,149.301122 C0.0277902135,149.713336 -0.888907347,149.464969 -1.30112152,148.74638 C-1.7133357,148.02779 -1.46496936,147.111093 -0.746379787,146.698878 L244.247123,6.15997004 L253.153995,1.05060175 Z"></path>
                </g>
                <g id="Info" transform="translate(0.000000, 29.000000)">
                    <rect id="Rectangle" stroke="#979797" stroke-width="2" x="1" y="1" width="258" height="88"></rect>
                    <text id="kernel_size-=-4-stri" font-family="Menlo-Regular, Menlo" font-size="20" font-weight="normal" fill="#000000">
                        <tspan x="16.25" y="25.8">kernel_size = 4</tspan>
                        <tspan x="16.25" y="49.8">strides = 1</tspan>
                        <tspan x="16.25" y="73.8">padding = 'valid'</tspan>
                    </text>
                </g>
            </g>
            <g id="Hidden" transform="translate(579.000000, 212.000000)" fill="#DCDCDC" stroke="#ABABAB" stroke-width="5">
                <g id="Hidden-dot">
                    <circle id="Oval" cx="25" cy="25" r="25"></circle>
                </g>
                <g id="Hidden-dot" transform="translate(86.000000, 0.000000)">
                    <circle id="Oval" cx="25" cy="25" r="25"></circle>
                </g>
                <g id="Hidden-dot" transform="translate(172.000000, 0.000000)">
                    <circle id="Oval" cx="25" cy="25" r="25"></circle>
                </g>
            </g>
            <g id="Kernels" transform="translate(0.000000, 57.000000)">
                <g id="Active-Kernel" opacity="0.254296875" transform="translate(604.000000, 0.000000)" fill="#7C7C7C" fill-rule="nonzero">
                    <path id="Line" d="M180.184797,4.61438739 L173.26408,15.1810051 C172.810183,15.8740195 171.880427,16.0678624 171.187413,15.6139653 C170.494399,15.1600683 170.300556,14.2303128 170.754453,13.5372984 L180.8126,-1.81957842 L183.421379,-1.64330961 L191.322283,14.9270167 C191.678829,15.6747908 191.361677,16.5700195 190.613903,16.926566 C189.866128,17.2831125 188.9709,16.9659598 188.614353,16.2181857 L183.177972,4.81662897 L182.49201,14.9688657 L173.496588,148.101121 C173.44074,148.927663 172.725422,149.552435 171.898879,149.496588 C171.072337,149.44074 170.447565,148.725422 170.503412,147.898879 L179.498835,14.7666241 L180.184797,4.61438739 Z"></path>
                    <path id="Line" d="M178.169569,3.14886248 L166.983115,9.01512014 C166.249449,9.3998602 165.342801,9.11699939 164.958061,8.38333285 C164.573321,7.64966631 164.856182,6.74301863 165.589848,6.35827858 L181.847558,-2.16738207 L184.041212,-0.744471106 L182.884806,17.5766294 C182.83262,18.4034113 182.120077,19.0313456 181.293295,18.9791602 C180.466513,18.9269747 179.838579,18.2144309 179.890764,17.3876491 L180.686453,4.7814358 L175.140042,13.3321529 L87.2584419,148.816287 C86.8076193,149.511305 85.8787316,149.709265 85.1837133,149.258442 C84.4886951,148.807619 84.2907354,147.878732 84.7415581,147.183713 L172.623158,11.6995796 L178.169569,3.14886248 Z"></path>
                    <path id="Line" d="M177.386746,1.81808171 L164.938258,3.9593155 C164.121821,4.09974888 163.346124,3.55173938 163.20569,2.73530202 C163.065257,1.91886466 163.613266,1.14316765 164.429704,1.00273427 L182.521576,-2.10920416 L184.171242,-0.0805603 L177.435814,16.9967347 C177.131862,17.7673869 176.260724,18.1457225 175.490072,17.8417708 C174.719419,17.5378191 174.341084,16.6666804 174.645035,15.8960282 L179.279487,4.14564114 L171.403536,10.55026 L0.946370317,149.16378 C0.303632529,149.686446 -0.64111382,149.589108 -1.16377971,148.94637 C-1.68644561,148.303633 -1.58910811,147.358886 -0.946370317,146.83622 L169.510796,8.22270055 L177.386746,1.81808171 Z"></path>
                </g>
                <g id="Active-Kernel" opacity="0.504129464" transform="translate(604.000000, 0.000000)" fill="#7C7C7C" fill-rule="nonzero">
                    <path id="Line" d="M170.5,4.72625996 L164.307363,15.7353919 C163.901218,16.4574287 162.986645,16.713509 162.264608,16.3073633 C161.542571,15.9012176 161.286491,14.986645 161.692637,14.2646081 L170.692637,-1.73539186 L173.307363,-1.73539186 L182.307363,14.2646081 C182.713509,14.986645 182.457429,15.9012176 181.735392,16.3073633 C181.013355,16.713509 180.098782,16.4574287 179.692637,15.7353919 L173.5,4.72625996 L173.5,15 L173.5,148 C173.5,148.828427 172.828427,149.5 172,149.5 C171.171573,149.5 170.5,148.828427 170.5,148 L170.5,15 L170.5,4.72625996 Z"></path>
                    <path id="Line" d="M168.328507,3.33281757 L157.443018,9.74030258 C156.72909,10.1605392 155.809669,9.92245552 155.389432,9.20852786 C154.969195,8.4946002 155.207279,7.57517841 155.921207,7.15494182 L171.741512,-2.15730562 L174.00227,-0.843621563 L173.74522,17.5121384 C173.73362,18.3404843 173.052709,19.0025877 172.224363,18.9909877 C171.396017,18.9793877 170.733914,18.298477 170.745514,17.4701311 L170.922383,4.84006966 L165.763419,13.7182869 L87.2969378,148.753626 C86.8807217,149.469905 85.9626529,149.713154 85.246374,149.296938 C84.530095,148.880722 84.286846,147.962653 84.7030622,147.246374 L163.169543,12.2110348 L168.328507,3.33281757 Z"></path>
                    <path id="Line" d="M167.439081,1.94564853 L155.054942,4.43217985 C154.242725,4.59525966 153.45209,4.06902999 153.289011,3.25681298 C153.125931,2.44459596 153.652161,1.65396167 154.464378,1.49088186 L172.462729,-2.12289091 L174.168163,-0.140899707 L167.910166,17.1170688 C167.62776,17.8958743 166.767477,18.2982853 165.988672,18.0158788 C165.209866,17.7334723 164.807455,16.8731899 165.089862,16.0943844 L169.395806,4.21968116 L161.687749,10.8521958 L0.978362872,149.137016 C0.350406103,149.677351 -0.596681417,149.60632 -1.13701631,148.978363 C-1.6773512,148.350406 -1.60631964,147.403319 -0.978362872,146.862984 L159.731023,8.5781632 L167.439081,1.94564853 Z"></path>
                </g>
                <g id="Active-Kernel" transform="translate(604.000000, 0.000000)" fill="#7C7C7C" fill-rule="nonzero">
                    <path id="Line" d="M160.822028,4.81662897 L155.385647,16.2181857 C155.0291,16.9659598 154.133872,17.2831125 153.386097,16.926566 C152.638323,16.5700195 152.321171,15.6747908 152.677717,14.9270167 L160.578621,-1.64330961 L163.1874,-1.81957842 L173.245547,13.5372984 C173.699444,14.2303128 173.505601,15.1600683 172.812587,15.6139653 C172.119573,16.0678624 171.189817,15.8740195 170.73592,15.1810051 L163.815203,4.61438739 L164.501165,14.7666241 L173.496588,147.898879 C173.552435,148.725422 172.927663,149.44074 172.101121,149.496588 C171.274578,149.552435 170.55926,148.927663 170.503412,148.101121 L161.50799,14.9688657 L160.822028,4.81662897 Z"></path>
                    <path id="Line" d="M158.506672,3.51911795 L147.968883,10.4836531 C147.27776,10.940424 146.347207,10.7504436 145.890437,10.0593199 C145.433666,9.36819631 145.623646,8.43764396 146.31477,7.98087308 L161.629748,-2.14095704 L163.955722,-0.946537679 L164.652951,17.3977768 C164.684415,18.2256062 164.038833,18.9222011 163.211004,18.9536652 C162.383174,18.9851292 161.686579,18.3395475 161.655115,17.5117181 L161.175373,4.88953201 L156.518164,13.958833 L87.3343505,148.685207 C86.9559211,149.422148 86.0517344,149.71278 85.314793,149.334351 C84.5778515,148.955921 84.2872201,148.051734 84.6656495,147.314793 L153.849463,12.5884189 L158.506672,3.51911795 Z"></path>
                    <path id="Line" d="M157.49893,2.0803614 L145.194175,4.93391056 C144.387165,5.12106134 143.581238,4.61856567 143.394087,3.81155508 C143.206936,3.0045445 143.709432,2.19861748 144.516442,2.0114667 L162.399422,-2.13570739 L164.163017,-0.205285754 L158.420776,17.2310748 C158.161644,18.0179306 157.313703,18.4457355 156.526847,18.1866037 C155.739991,17.9274718 155.312187,17.0795312 155.571318,16.2926753 L159.522387,4.29522581 L151.99164,11.1751674 L1.01172818,149.107432 C0.400110268,149.666194 -0.548670155,149.623346 -1.1074322,149.011728 C-1.66619425,148.40011 -1.6233461,147.45133 -1.01172818,146.892568 L149.968183,8.960303 L157.49893,2.0803614 Z"></path>
                </g>
                <g id="Info" transform="translate(0.000000, 14.000000)">
                    <rect id="Rectangle" stroke="#979797" stroke-width="2" x="1" y="1" width="258" height="118"></rect>
                    <text id="filters-=-n_classes" font-family="Menlo-Regular, Menlo" font-size="20" font-weight="normal" fill="#000000">
                        <tspan x="15.0119048" y="26.8736842">filters = n_classes</tspan>
                        <tspan x="15.0119048" y="50.8736842">kernel_size = 3</tspan>
                        <tspan x="15.0119048" y="74.8736842">strides = 1</tspan>
                        <tspan x="15.0119048" y="98.8736842">padding = 'valid'</tspan>
                    </text>
                </g>
            </g>
            <g id="Output" transform="translate(741.000000, 0.000000)">
                <g id="Output-dot" opacity="0.254296875" transform="translate(20.000000, 0.000000)">
                    <circle id="Oval" stroke="#FF651E" stroke-width="5" fill="#FF9901" cx="25" cy="25" r="25"></circle>
                    <text id="7" font-family="Helvetica-Bold, Helvetica" font-size="32" font-weight="bold" fill="#FFFFFF">
                        <tspan x="16.6015625" y="36">7</tspan>
                    </text>
                </g>
                <g id="Output-dot" opacity="0.504129464" transform="translate(10.000000, 0.000000)">
                    <circle id="Oval" stroke="#FF651E" stroke-width="5" fill="#FF9901" cx="25" cy="25" r="25"></circle>
                    <text id="7" font-family="Helvetica-Bold, Helvetica" font-size="32" font-weight="bold" fill="#FFFFFF">
                        <tspan x="16.6015625" y="36">7</tspan>
                    </text>
                </g>
                <g id="Output-dot">
                    <circle id="Oval" stroke="#FF651E" stroke-width="5" fill="#FF9901" cx="25" cy="25" r="25"></circle>
                    <text id="7" font-family="Helvetica-Bold, Helvetica" font-size="32" font-weight="bold" fill="#FFFFFF">
                        <tspan x="16.6015625" y="36">7</tspan>
                    </text>
                </g>
            </g>
        </g>
    </g>
</svg>