<?xml version="1.0" encoding="UTF-8"?>
<svg width="718px" height="480px" viewBox="0 0 718 480" version="1.1" xmlns="http://www.w3.org/2000/svg" xmlns:xlink="http://www.w3.org/1999/xlink">
    <!-- Generator: Sketch 53.2 (72643) - https://sketchapp.com -->
    <title>07-padding-same-concept</title>
    <desc>Created with Sketch.</desc>
    <g id="Page-1" stroke="none" stroke-width="1" fill="none" fill-rule="evenodd">
        <g id="07-padding-same-concept" transform="translate(0.000000, 3.000000)">
            <g id="Input" transform="translate(321.000000, 424.000000)">
                <g id="Padding-dot" fill="#FFFFFF" stroke="#DCDCDC" stroke-width="5">
                    <circle id="Oval" cx="25" cy="25" r="25"></circle>
                </g>
                <g id="Input-dot" transform="translate(86.000000, 0.000000)">
                    <circle id="Oval" stroke="#1E81E9" stroke-width="5" fill="#65BFFF" cx="25" cy="25" r="25"></circle>
                    <text id="2" font-family="Helvetica-Bold, Helvetica, Arial, 'Lucida Grande', sans-serif" font-size="32" font-weight="bold" fill="#FFFFFF">
                        <tspan x="16.6015625" y="35">1</tspan>
                    </text>
                </g>
                <g id="Input-dot" transform="translate(172.000000, 0.000000)">
                    <circle id="Oval" stroke="#1E81E9" stroke-width="5" fill="#65BFFF" cx="25" cy="25" r="25"></circle>
                    <text id="2" font-family="Helvetica-Bold, Helvetica, Arial, 'Lucida Grande', sans-serif" font-size="32" font-weight="bold" fill="#FFFFFF">
                        <tspan x="16.6015625" y="35">2</tspan>
                    </text>
                </g>
                <g id="Input-dot" transform="translate(258.000000, 0.000000)">
                    <circle id="Oval" stroke="#1E81E9" stroke-width="5" fill="#65BFFF" cx="25" cy="25" r="25"></circle>
                    <text id="3" font-family="Helvetica-Bold, Helvetica, Arial, 'Lucida Grande', sans-serif" font-size="32" font-weight="bold" fill="#FFFFFF">
                        <tspan x="16.6015625" y="35">3</tspan>
                    </text>
                </g>
                <g id="Padding-dot" transform="translate(344.000000, 0.000000)" fill="#FFFFFF" stroke="#DCDCDC" stroke-width="5">
                    <circle id="Oval" cx="25" cy="25" r="25"></circle>
                </g>
            </g>
            <g id="Kernels" transform="translate(0.000000, 269.000000)">
                <g id="Active-Kernel" transform="translate(518.000000, 0.000000)" fill="#7C7C7C" fill-rule="nonzero">
                    <path id="Line" d="M87.0776172,4.84006966 L87.2544863,17.4701311 C87.2660863,18.298477 86.603983,18.9793877 85.775637,18.9909877 C84.9472911,19.0025877 84.2663804,18.3404843 84.2547804,17.5121384 L83.9977297,-0.843621563 L86.2584883,-2.15730562 L102.078793,7.15494182 C102.792721,7.57517841 103.030805,8.4946002 102.610568,9.20852786 C102.190331,9.92245552 101.27091,10.1605392 100.556982,9.74030258 L89.6714929,3.33281757 L94.830457,12.2110348 L173.296938,147.246374 C173.713154,147.962653 173.469905,148.880722 172.753626,149.296938 C172.037347,149.713154 171.119278,149.469905 170.703062,148.753626 L92.2365813,13.7182869 L87.0776172,4.84006966 Z"></path>
                    <path id="Line" d="M84.5,4.72625996 L78.3073633,15.7353919 C77.9012176,16.4574287 76.986645,16.713509 76.2646081,16.3073633 C75.5425713,15.9012176 75.286491,14.986645 75.6926367,14.2646081 L84.6926367,-1.73539186 L87.3073633,-1.73539186 L96.3073633,14.2646081 C96.713509,14.986645 96.4574287,15.9012176 95.7353919,16.3073633 C95.013355,16.713509 94.0987824,16.4574287 93.6926367,15.7353919 L87.5,4.72625996 L87.5,15 L87.5,148 C87.5,148.828427 86.8284271,149.5 86,149.5 C85.1715729,149.5 84.5,148.828427 84.5,148 L84.5,15 L84.5,4.72625996 Z"></path>
                    <path id="Line" d="M82.3285071,3.33281757 L71.4430181,9.74030258 C70.7290904,10.1605392 69.8096687,9.92245552 69.3894321,9.20852786 C68.9691955,8.4946002 69.2072791,7.57517841 69.9212068,7.15494182 L85.7415117,-2.15730562 L88.0022703,-0.843621563 L87.7452196,17.5121384 C87.7336196,18.3404843 87.0527089,19.0025877 86.224363,18.9909877 C85.396017,18.9793877 84.7339137,18.298477 84.7455137,17.4701311 L84.9223828,4.84006966 L79.7634187,13.7182869 L1.29693785,148.753626 C0.880721675,149.469905 -0.0373470519,149.713154 -0.753626047,149.296938 C-1.46990504,148.880722 -1.71315402,147.962653 -1.29693785,147.246374 L77.169543,12.2110348 L82.3285071,3.33281757 Z"></path>
                </g>
                <g id="Active-Kernel" transform="translate(432.000000, 0.000000)" fill="#7C7C7C" fill-rule="nonzero">
                    <path id="Line" d="M87.0776172,4.84006966 L87.2544863,17.4701311 C87.2660863,18.298477 86.603983,18.9793877 85.775637,18.9909877 C84.9472911,19.0025877 84.2663804,18.3404843 84.2547804,17.5121384 L83.9977297,-0.843621563 L86.2584883,-2.15730562 L102.078793,7.15494182 C102.792721,7.57517841 103.030805,8.4946002 102.610568,9.20852786 C102.190331,9.92245552 101.27091,10.1605392 100.556982,9.74030258 L89.6714929,3.33281757 L94.830457,12.2110348 L173.296938,147.246374 C173.713154,147.962653 173.469905,148.880722 172.753626,149.296938 C172.037347,149.713154 171.119278,149.469905 170.703062,148.753626 L92.2365813,13.7182869 L87.0776172,4.84006966 Z"></path>
                    <path id="Line" d="M84.5,4.72625996 L78.3073633,15.7353919 C77.9012176,16.4574287 76.986645,16.713509 76.2646081,16.3073633 C75.5425713,15.9012176 75.286491,14.986645 75.6926367,14.2646081 L84.6926367,-1.73539186 L87.3073633,-1.73539186 L96.3073633,14.2646081 C96.713509,14.986645 96.4574287,15.9012176 95.7353919,16.3073633 C95.013355,16.713509 94.0987824,16.4574287 93.6926367,15.7353919 L87.5,4.72625996 L87.5,15 L87.5,148 C87.5,148.828427 86.8284271,149.5 86,149.5 C85.1715729,149.5 84.5,148.828427 84.5,148 L84.5,15 L84.5,4.72625996 Z"></path>
                    <path id="Line" d="M82.3285071,3.33281757 L71.4430181,9.74030258 C70.7290904,10.1605392 69.8096687,9.92245552 69.3894321,9.20852786 C68.9691955,8.4946002 69.2072791,7.57517841 69.9212068,7.15494182 L85.7415117,-2.15730562 L88.0022703,-0.843621563 L87.7452196,17.5121384 C87.7336196,18.3404843 87.0527089,19.0025877 86.224363,18.9909877 C85.396017,18.9793877 84.7339137,18.298477 84.7455137,17.4701311 L84.9223828,4.84006966 L79.7634187,13.7182869 L1.29693785,148.753626 C0.880721675,149.469905 -0.0373470519,149.713154 -0.753626047,149.296938 C-1.46990504,148.880722 -1.71315402,147.962653 -1.29693785,147.246374 L77.169543,12.2110348 L82.3285071,3.33281757 Z"></path>
                </g>
                <g id="Active-Kernel" transform="translate(346.000000, 0.000000)" fill="#7C7C7C" fill-rule="nonzero">
                    <path id="Line" d="M87.0776172,4.84006966 L87.2544863,17.4701311 C87.2660863,18.298477 86.603983,18.9793877 85.775637,18.9909877 C84.9472911,19.0025877 84.2663804,18.3404843 84.2547804,17.5121384 L83.9977297,-0.843621563 L86.2584883,-2.15730562 L102.078793,7.15494182 C102.792721,7.57517841 103.030805,8.4946002 102.610568,9.20852786 C102.190331,9.92245552 101.27091,10.1605392 100.556982,9.74030258 L89.6714929,3.33281757 L94.830457,12.2110348 L173.296938,147.246374 C173.713154,147.962653 173.469905,148.880722 172.753626,149.296938 C172.037347,149.713154 171.119278,149.469905 170.703062,148.753626 L92.2365813,13.7182869 L87.0776172,4.84006966 Z"></path>
                    <path id="Line" d="M84.5,4.72625996 L78.3073633,15.7353919 C77.9012176,16.4574287 76.986645,16.713509 76.2646081,16.3073633 C75.5425713,15.9012176 75.286491,14.986645 75.6926367,14.2646081 L84.6926367,-1.73539186 L87.3073633,-1.73539186 L96.3073633,14.2646081 C96.713509,14.986645 96.4574287,15.9012176 95.7353919,16.3073633 C95.013355,16.713509 94.0987824,16.4574287 93.6926367,15.7353919 L87.5,4.72625996 L87.5,15 L87.5,148 C87.5,148.828427 86.8284271,149.5 86,149.5 C85.1715729,149.5 84.5,148.828427 84.5,148 L84.5,15 L84.5,4.72625996 Z"></path>
                    <path id="Line" d="M82.3285071,3.33281757 L71.4430181,9.74030258 C70.7290904,10.1605392 69.8096687,9.92245552 69.3894321,9.20852786 C68.9691955,8.4946002 69.2072791,7.57517841 69.9212068,7.15494182 L85.7415117,-2.15730562 L88.0022703,-0.843621563 L87.7452196,17.5121384 C87.7336196,18.3404843 87.0527089,19.0025877 86.224363,18.9909877 C85.396017,18.9793877 84.7339137,18.298477 84.7455137,17.4701311 L84.9223828,4.84006966 L79.7634187,13.7182869 L1.29693785,148.753626 C0.880721675,149.469905 -0.0373470519,149.713154 -0.753626047,149.296938 C-1.46990504,148.880722 -1.71315402,147.962653 -1.29693785,147.246374 L77.169543,12.2110348 L82.3285071,3.33281757 Z"></path>
                </g>
                <g id="Info" transform="translate(0.000000, 29.000000)">
                    <rect id="Rectangle" stroke="#979797" stroke-width="2" x="1" y="1" width="258" height="88"></rect>
                    <text id="kernel_size-=-3-stri" font-family="Menlo-Regular, Menlo, Consolas, Monaco, 'Lucida Console', 'Liberation Mono', 'DejaVu Sans Mono', 'Bitstream Vera Sans Mono', 'Courier New', monospace, serif" font-size="20" font-weight="normal" fill="#000000">
                        <tspan x="16.25" y="25.8">kernel_size = 3</tspan>
                        <tspan x="16.25" y="49.8">strides = 1</tspan>
                        <tspan x="16.25" y="73.8">padding = 'same'</tspan>
                    </text>
                </g>
            </g>
            <g id="Hidden" transform="translate(407.000000, 212.000000)" fill="#DCDCDC" stroke="#ABABAB" stroke-width="5">
                <g id="Hidden-dot">
                    <circle id="Oval" cx="25" cy="25" r="25"></circle>
                </g>
                <g id="Hidden-dot" transform="translate(86.000000, 0.000000)">
                    <circle id="Oval" cx="25" cy="25" r="25"></circle>
                </g>
                <g id="Hidden-dot" transform="translate(172.000000, 0.000000)">
                    <circle id="Oval" cx="25" cy="25" r="25"></circle>
                </g>
            </g>
            <g id="Kernels" transform="translate(0.000000, 57.000000)">
                <g id="Active-Kernel" transform="translate(432.000000, 0.000000)" fill="#7C7C7C" fill-rule="nonzero">
                    <path id="Line" d="M170.5,4.72625996 L164.307363,15.7353919 C163.901218,16.4574287 162.986645,16.713509 162.264608,16.3073633 C161.542571,15.9012176 161.286491,14.986645 161.692637,14.2646081 L170.692637,-1.73539186 L173.307363,-1.73539186 L182.307363,14.2646081 C182.713509,14.986645 182.457429,15.9012176 181.735392,16.3073633 C181.013355,16.713509 180.098782,16.4574287 179.692637,15.7353919 L173.5,4.72625996 L173.5,15 L173.5,148 C173.5,148.828427 172.828427,149.5 172,149.5 C171.171573,149.5 170.5,148.828427 170.5,148 L170.5,15 L170.5,4.72625996 Z"></path>
                    <path id="Line" d="M168.328507,3.33281757 L157.443018,9.74030258 C156.72909,10.1605392 155.809669,9.92245552 155.389432,9.20852786 C154.969195,8.4946002 155.207279,7.57517841 155.921207,7.15494182 L171.741512,-2.15730562 L174.00227,-0.843621563 L173.74522,17.5121384 C173.73362,18.3404843 173.052709,19.0025877 172.224363,18.9909877 C171.396017,18.9793877 170.733914,18.298477 170.745514,17.4701311 L170.922383,4.84006966 L165.763419,13.7182869 L87.2969378,148.753626 C86.8807217,149.469905 85.9626529,149.713154 85.246374,149.296938 C84.530095,148.880722 84.286846,147.962653 84.7030622,147.246374 L163.169543,12.2110348 L168.328507,3.33281757 Z"></path>
                    <path id="Line" d="M167.439081,1.94564853 L155.054942,4.43217985 C154.242725,4.59525966 153.45209,4.06902999 153.289011,3.25681298 C153.125931,2.44459596 153.652161,1.65396167 154.464378,1.49088186 L172.462729,-2.12289091 L174.168163,-0.140899707 L167.910166,17.1170688 C167.62776,17.8958743 166.767477,18.2982853 165.988672,18.0158788 C165.209866,17.7334723 164.807455,16.8731899 165.089862,16.0943844 L169.395806,4.21968116 L161.687749,10.8521958 L0.978362872,149.137016 C0.350406103,149.677351 -0.596681417,149.60632 -1.13701631,148.978363 C-1.6773512,148.350406 -1.60631964,147.403319 -0.978362872,146.862984 L159.731023,8.5781632 L167.439081,1.94564853 Z"></path>
                </g>
                <g id="Info" transform="translate(0.000000, 29.000000)">
                    <rect id="Rectangle" stroke="#979797" stroke-width="2" x="1" y="1" width="258" height="88"></rect>
                    <text id="kernel_size-=-3-stri" font-family="Menlo-Regular, Menlo, Consolas, Monaco, 'Lucida Console', 'Liberation Mono', 'DejaVu Sans Mono', 'Bitstream Vera Sans Mono', 'Courier New', monospace, serif" font-size="20" font-weight="normal" fill="#000000">
                        <tspan x="16.25" y="25.8">kernel_size = 3</tspan>
                        <tspan x="16.25" y="49.8">strides = 1</tspan>
                        <tspan x="16.25" y="73.8">padding = 'valid'</tspan>
                    </text>
                </g>
            </g>
            <g id="Output" transform="translate(579.000000, 0.000000)">
                <g id="Output-dot">
                    <circle id="Oval" stroke="#FF651E" stroke-width="5" fill="#FF9901" cx="25" cy="25" r="25"></circle>
                    <text id="4" font-family="Helvetica-Bold, Helvetica, Arial, 'Lucida Grande', sans-serif" font-size="32" font-weight="bold" fill="#FFFFFF">
                        <tspan x="16.6015625" y="36">4</tspan>
                    </text>
                </g>
            </g>
        </g>
    </g>
</svg>